<svg width="1690" height="521" viewBox="0 0 1690 521" fill="none" xmlns="http://www.w3.org/2000/svg">
<g opacity="0.03" clip-path="url(#clip0_1291_531)">
<path d="M580.904 420.713H504.136V520.551H580.904V420.713Z" fill="white"/>
<path d="M480.076 459.317H403.309V520.551H480.076V459.317Z" fill="white"/>
<path d="M379.248 489.934H302.481V520.551H379.248V489.934Z" fill="white"/>
<path d="M76.7673 489.934H0V520.551H76.7673V489.934Z" fill="white"/>
<path d="M278.421 464.921H201.653V520.553H278.421V464.921Z" fill="white"/>
<path d="M177.595 481.232H100.828V520.551H177.595V481.232Z" fill="white"/>
<path d="M681.729 441.913H604.962V520.551H681.729V441.913Z" fill="white"/>
<path d="M782.557 459.317H705.79V520.551H782.557V459.317Z" fill="white"/>
<path d="M1085.04 409.289H1008.27V520.551H1085.04V409.289Z" fill="white"/>
<path d="M984.21 441.913H907.443V520.551H984.21V441.913Z" fill="white"/>
<path d="M883.384 470.633H806.617V520.553H883.384V470.633Z" fill="white"/>
<path d="M1185.87 366.239H1109.1V520.551H1185.87V366.239Z" fill="white"/>
<path d="M1286.69 347.276H1209.92V520.553H1286.69V347.276Z" fill="white"/>
<path d="M1387.52 279.962H1310.75V520.551H1387.52V279.962Z" fill="white"/>
<path d="M1488.35 184.606H1411.58V520.551H1488.35V184.606Z" fill="white"/>
<path d="M1589.17 132.753H1512.41V520.551H1589.17V132.753Z" fill="white"/>
<path d="M1690 0.550659H1613.23V520.551H1690V0.550659Z" fill="white"/>
</g>
<defs>
<clipPath id="clip0_1291_531">
<rect width="1690" height="520" fill="white" transform="translate(0 0.550659)"/>
</clipPath>
</defs>
</svg>
